# xmcd
#
# Track frame offsets: 
#        150
#        21022
#        42352
#        68192
#        87792
#        118242
#        139962
#        161095
#        179295
#        205200
#        225305
#        245752
#        267470
#        297060
#        325087
#
# Disc length: 4630 seconds
#
# Revision: 26
# Processed by: cddbd v1.5.2PL0 Copyright (c) Steve Scherf et al.
# Submitted via: ExactAudioCopyFreeDBPlugin 1.0
#
DISCID=d912140f
DTITLE=Michael Jackson - HIStory - Past, Present and Future - Book I  (C
DTITLE=D2)
DYEAR=1995
DGENRE=Oldies
TTITLE0=Michael Jackson and Janet Jackson_Scream
TTITLE1=They Don't Care About Us
TTITLE2=Stranger In Moscow
TTITLE3=This Time Around
TTITLE4=Earth Song
TTITLE5=D.S.
TTITLE6=Money
TTITLE7=Come Together
TTITLE8=You Are Not Alone
TTITLE9=Childhood
TTITLE10=Tabloid Junkie
TTITLE11=2 Bad
TTITLE12=History
TTITLE13=Little Susie
TTITLE14=Smile
EXTD=
EXTT0=
EXTT1=
EXTT2=
EXTT3=
EXTT4=
EXTT5=
EXTT6=
EXTT7=
EXTT8=
EXTT9=
EXTT10=
EXTT11=
EXTT12=
EXTT13=
EXTT14=
PLAYORDER=
